<svg xmlns="http://www.w3.org/2000/svg" width="2000" height="1308" viewBox="0 0 2000 1308" fill="none"><g clip-path="url(#clip0_9852_98521)"><path opacity="0.4" d="M282.043 799.835C513.434 686.319 786.261 664.777 1100.53 735.207C1414.79 805.637 1571.39 760.235 1570.32 599C1570.32 599 1986.4 919.459 1822.95 1018.3C1738.49 1069.38 1668.01 1032.12 1570.32 1018.3C1045 944 852 1094 282.043 1018.3C234.604 1012 201.22 1041.79 159.5 1018.3C74.3398 970.355 282.043 799.835 282.043 799.835Z" fill="#F7F1FB"></path><g style="mix-blend-mode:multiply" opacity="0.4"><path d="M1171.38 118C1376.8 118 1544.63 279.021 1555.67 481.793L1556.41 481.793C1559.85 549.615 1615.9 603.55 1684.54 603.55C1753.18 603.55 1742.08 486.93 1812.66 481.796C1883.23 476.663 1812.76 481.796 1812.83 481.795C1913.02 481.377 1828.3 639.457 1812.83 738.506C1713.83 1372.28 -124.263 1307.85 171.09 738.506C204.669 673.775 254.378 652.695 273.354 582.279C289.23 523.373 273.354 426.053 273.354 426.053C273.354 355.164 330.792 297.697 401.644 297.697C472.496 297.697 529.933 355.164 529.933 426.053V481.795L530.1 481.796C533.534 549.617 589.583 603.55 658.222 603.55C726.862 603.55 782.912 549.615 786.345 481.793L787.089 481.793C798.124 279.021 965.957 118 1171.38 118Z" fill="url(#paint0_linear_9852_98521)" fill-opacity="0.4"></path><path d="M1171.38 118C1376.8 118 1544.63 279.021 1555.67 481.793L1556.41 481.793C1559.85 549.615 1615.9 603.55 1684.54 603.55C1753.18 603.55 1742.08 486.93 1812.66 481.796C1883.23 476.663 1812.76 481.796 1812.83 481.795C1913.02 481.377 1828.3 639.457 1812.83 738.506C1713.83 1372.28 -124.263 1307.85 171.09 738.506C204.669 673.775 254.378 652.695 273.354 582.279C289.23 523.373 273.354 426.053 273.354 426.053C273.354 355.164 330.792 297.697 401.644 297.697C472.496 297.697 529.933 355.164 529.933 426.053V481.795L530.1 481.796C533.534 549.617 589.583 603.55 658.222 603.55C726.862 603.55 782.912 549.615 786.345 481.793L787.089 481.793C798.124 279.021 965.957 118 1171.38 118Z" fill="url(#paint1_linear_9852_98521)"></path></g><g filter="url(#filter0_f_9852_98521)"><path d="M507.5 1174C740.288 1174 929 985.288 929 752.5C929 519.712 740.288 331 507.5 331C274.712 331 86 519.712 86 752.5C86 985.288 274.712 1174 507.5 1174Z" fill="url(#paint2_radial_9852_98521)"></path></g><g opacity="0.6" filter="url(#filter1_f_9852_98521)"><path d="M576.478 423.668C828.608 368.84 1069.95 453.707 1115.52 613.224C1161.1 772.742 993.652 946.503 741.522 1001.33C489.392 1056.16 248.054 971.293 202.478 811.776C156.903 652.258 324.348 478.497 576.478 423.668Z" fill="url(#paint3_linear_9852_98521)"></path></g><g opacity="0.6" filter="url(#filter2_f_9852_98521)"><path d="M969 624.442L1149.24 253L1760 672.558L1579.76 1044L969 624.442Z" fill="url(#paint4_linear_9852_98521)"></path></g><path d="M287.604 829.331C849.959 829.33 1209.5 590.087 1727.6 829.331C1909.98 913.546 2007.03 972.828 1727.6 1116.33C1448.18 1259.83 1200.82 1196.09 729.605 1116.33C612.882 1096.57 426.576 1146.71 287.604 1116.33C148.633 1085.96 100.5 829.331 287.604 829.331Z" fill="url(#paint5_linear_9852_98521)"></path></g><defs><filter id="filter0_f_9852_98521" x="-14" y="231" width="1043" height="1043" filterUnits="userSpaceOnUse" color-interpolation-filters="sRGB"><feGaussianBlur stdDeviation="50"></feGaussianBlur></filter><filter id="filter1_f_9852_98521" x="-5" y="207" width="1328" height="1011" filterUnits="userSpaceOnUse" color-interpolation-filters="sRGB"><feGaussianBlur stdDeviation="100"></feGaussianBlur></filter><filter id="filter2_f_9852_98521" x="769" y="53" width="1191" height="1191" filterUnits="userSpaceOnUse" color-interpolation-filters="sRGB"><feGaussianBlur stdDeviation="100"></feGaussianBlur></filter><linearGradient id="paint0_linear_9852_98521" x1="273.354" y1="572.744" x2="1812.83" y2="572.744" gradientUnits="userSpaceOnUse"><stop stop-color="#ECBACB"></stop><stop offset="0.5" stop-color="#EBDDF5"></stop><stop offset="1" stop-color="#D3CBEC"></stop></linearGradient><linearGradient id="paint1_linear_9852_98521" x1="1000" y1="1190" x2="1000" y2="175.062" gradientUnits="userSpaceOnUse"><stop stop-color="white"></stop><stop offset="1" stop-color="white" stop-opacity="0"></stop></linearGradient><radialGradient id="paint2_radial_9852_98521" cx="0" cy="0" r="1" gradientUnits="userSpaceOnUse" gradientTransform="translate(42236 42481) scale(35457.7)"><stop stop-color="white"></stop><stop offset="0.366949" stop-color="white" stop-opacity="0.729048"></stop><stop offset="1" stop-color="white" stop-opacity="0.5"></stop></radialGradient><linearGradient id="paint3_linear_9852_98521" x1="659" y1="407" x2="659" y2="1018" gradientUnits="userSpaceOnUse"><stop stop-color="#FAB4CC"></stop><stop offset="1" stop-color="#EBDDF5"></stop></linearGradient><linearGradient id="paint4_linear_9852_98521" x1="1364.5" y1="253" x2="1364.5" y2="1044" gradientUnits="userSpaceOnUse"><stop stop-color="#FAB4CC"></stop><stop offset="1" stop-color="#EBDDF5"></stop></linearGradient><linearGradient id="paint5_linear_9852_98521" x1="1007.6" y1="829.331" x2="1007.6" y2="1201.7" gradientUnits="userSpaceOnUse"><stop stop-color="#FDFBFE" stop-opacity="0"></stop><stop offset="1" stop-color="#FDFBFE" stop-opacity="0.4"></stop></linearGradient><clipPath id="clip0_9852_98521"><rect width="2000" height="1308" fill="white"></rect></clipPath></defs></svg>