<svg xmlns="http://www.w3.org/2000/svg" width="2000" height="1308" viewBox="0 0 2000 1308" fill="none"><g clip-path="url(#clip0_9852_98539)"><g filter="url(#filter0_f_9852_98539)"><path d="M1386.5 540C1510.49 540 1611 439.712 1611 316C1611 192.288 1510.49 92 1386.5 92C1262.51 92 1162 192.288 1162 316C1162 439.712 1262.51 540 1386.5 540Z" fill="url(#paint0_radial_9852_98539)"></path></g><g opacity="0.6" filter="url(#filter1_f_9852_98539)"><path d="M1000.06 799L917 462.901L1568.94 299L1652 635.099L1000.06 799Z" fill="url(#paint1_linear_9852_98539)"></path></g><g opacity="0.6" filter="url(#filter2_f_9852_98539)"><path d="M948.154 546.729C1060.99 766.22 1025.23 1011.43 868.299 1094.42C711.365 1177.42 492.677 1066.76 379.846 847.271C267.015 627.78 302.767 382.568 459.701 299.576C616.635 216.584 835.323 327.238 948.154 546.729Z" fill="url(#paint2_linear_9852_98539)"></path></g><path d="M1139 378C1139 336.026 1173.03 302 1215 302C1229.25 302 1242.58 305.92 1253.97 312.74C1278.88 257.471 1334.44 219 1399 219C1450.06 219 1495.51 243.072 1524.6 280.488C1533.01 278.213 1541.86 277 1551 277C1606.78 277 1652 322.219 1652 378H1139Z" fill="white"></path><path d="M1139 378C1139 336.026 1173.03 302 1215 302C1229.25 302 1242.58 305.92 1253.97 312.74C1278.88 257.471 1334.44 219 1399 219C1450.06 219 1495.51 243.072 1524.6 280.488C1533.01 278.213 1541.86 277 1551 277C1606.78 277 1652 322.219 1652 378H1139Z" fill="url(#paint3_linear_9852_98539)"></path><g filter="url(#filter3_f_9852_98539)"><path d="M500.5 1163C624.488 1163 725 1062.71 725 939C725 815.288 624.488 715 500.5 715C376.512 715 276 815.288 276 939C276 1062.71 376.512 1163 500.5 1163Z" fill="url(#paint4_radial_9852_98539)"></path></g><g clip-path="url(#clip1_9852_98539)"><path d="M212 1018C212 962.219 257.219 917 313 917C318.187 917 323.283 917.391 328.26 918.145C357.406 882.071 402.009 859 452 859C512.334 859 564.818 892.605 591.759 942.118C593.16 942.039 594.576 942 596 942C626.733 942 653.205 960.242 665.18 986.489C674.345 975.208 688.331 968 704 968C731.614 968 754 990.386 754 1018H212Z" fill="white"></path><path d="M212 1018C212 962.219 257.219 917 313 917C318.187 917 323.283 917.391 328.26 918.145C357.406 882.071 402.009 859 452 859C512.334 859 564.818 892.605 591.759 942.118C593.16 942.039 594.576 942 596 942C626.733 942 653.205 960.242 665.18 986.489C674.345 975.208 688.331 968 704 968C731.614 968 754 990.386 754 1018H212Z" fill="white"></path><path d="M212 1018C212 962.219 257.219 917 313 917C318.187 917 323.283 917.391 328.26 918.145C357.406 882.071 402.009 859 452 859C512.334 859 564.818 892.605 591.759 942.118C593.16 942.039 594.576 942 596 942C626.733 942 653.205 960.242 665.18 986.489C674.345 975.208 688.331 968 704 968C731.614 968 754 990.386 754 1018H212Z" fill="url(#paint5_linear_9852_98539)"></path></g><g filter="url(#filter4_f_9852_98539)"><path d="M1574.5 585C1698.49 585 1799 484.712 1799 361C1799 237.288 1698.49 137 1574.5 137C1450.51 137 1350 237.288 1350 361C1350 484.712 1450.51 585 1574.5 585Z" fill="url(#paint6_radial_9852_98539)"></path></g><g filter="url(#filter5_f_9852_98539)"><path d="M664.5 1242C788.488 1242 889 1141.71 889 1018C889 894.288 788.488 794 664.5 794C540.512 794 440 894.288 440 1018C440 1141.71 540.512 1242 664.5 1242Z" fill="url(#paint7_radial_9852_98539)"></path></g></g><defs><filter id="filter0_f_9852_98539" x="1062" y="-8" width="649" height="648" filterUnits="userSpaceOnUse" color-interpolation-filters="sRGB"><feGaussianBlur stdDeviation="50"></feGaussianBlur></filter><filter id="filter1_f_9852_98539" x="717" y="99" width="1135" height="900" filterUnits="userSpaceOnUse" color-interpolation-filters="sRGB"><feGaussianBlur stdDeviation="100"></feGaussianBlur></filter><filter id="filter2_f_9852_98539" x="114" y="72" width="1100" height="1250" filterUnits="userSpaceOnUse" color-interpolation-filters="sRGB"><feGaussianBlur stdDeviation="100"></feGaussianBlur></filter><filter id="filter3_f_9852_98539" x="176" y="615" width="649" height="648" filterUnits="userSpaceOnUse" color-interpolation-filters="sRGB"><feGaussianBlur stdDeviation="50"></feGaussianBlur></filter><filter id="filter4_f_9852_98539" x="1250" y="37" width="649" height="648" filterUnits="userSpaceOnUse" color-interpolation-filters="sRGB"><feGaussianBlur stdDeviation="50"></feGaussianBlur></filter><filter id="filter5_f_9852_98539" x="340" y="694" width="649" height="648" filterUnits="userSpaceOnUse" color-interpolation-filters="sRGB"><feGaussianBlur stdDeviation="50"></feGaussianBlur></filter><radialGradient id="paint0_radial_9852_98539" cx="0" cy="0" r="1" gradientUnits="userSpaceOnUse" gradientTransform="translate(1386.5 316) rotate(90) scale(224 224.5)"><stop stop-color="#FAB4CC" stop-opacity="0.5"></stop><stop offset="1" stop-color="#FAB4CC" stop-opacity="0"></stop></radialGradient><linearGradient id="paint1_linear_9852_98539" x1="1284.5" y1="299" x2="1284.5" y2="799" gradientUnits="userSpaceOnUse"><stop stop-color="#FAB4CC"></stop><stop offset="1" stop-color="#EBDDF5"></stop></linearGradient><linearGradient id="paint2_linear_9852_98539" x1="664" y1="272" x2="664" y2="1122" gradientUnits="userSpaceOnUse"><stop stop-color="#FAB4CC"></stop><stop offset="1" stop-color="#EBDDF5"></stop></linearGradient><linearGradient id="paint3_linear_9852_98539" x1="1033.88" y1="357.516" x2="1039.57" y2="592.493" gradientUnits="userSpaceOnUse"><stop stop-color="#FAB4CC" stop-opacity="0.01"></stop><stop offset="1" stop-color="#FAB4CC"></stop></linearGradient><radialGradient id="paint4_radial_9852_98539" cx="0" cy="0" r="1" gradientUnits="userSpaceOnUse" gradientTransform="translate(500.5 939) rotate(90) scale(224 224.5)"><stop stop-color="#FAB4CC" stop-opacity="0.5"></stop><stop offset="1" stop-color="#FAB4CC" stop-opacity="0"></stop></radialGradient><linearGradient id="paint5_linear_9852_98539" x1="100.938" y1="997.516" x2="106.327" y2="1232.51" gradientUnits="userSpaceOnUse"><stop stop-color="#FAB4CC" stop-opacity="0.01"></stop><stop offset="1" stop-color="#FAB4CC"></stop></linearGradient><radialGradient id="paint6_radial_9852_98539" cx="0" cy="0" r="1" gradientUnits="userSpaceOnUse" gradientTransform="translate(1574.5 361) rotate(90) scale(224 224.5)"><stop stop-color="white"></stop><stop offset="1" stop-color="white" stop-opacity="0"></stop></radialGradient><radialGradient id="paint7_radial_9852_98539" cx="0" cy="0" r="1" gradientUnits="userSpaceOnUse" gradientTransform="translate(664.5 1018) rotate(90) scale(224 224.5)"><stop stop-color="white"></stop><stop offset="1" stop-color="white" stop-opacity="0"></stop></radialGradient><clipPath id="clip0_9852_98539"><rect width="2000" height="1308" fill="white"></rect></clipPath><clipPath id="clip1_9852_98539"><rect width="542" height="159" fill="white" transform="translate(212 859)"></rect></clipPath></defs></svg>