<svg width="1394" height="451" viewBox="0 0 1394 451" fill="none" xmlns="http://www.w3.org/2000/svg"><path d="M307 386C306.448 386 306 386.447 306 387C306 387.552 306.448 388 307 388C307.552 388 308 387.552 308 387C308 386.447 307.552 386 307 386Z" fill="white"/><path d="M237 406C236.448 406 236 406.447 236 407C236 407.552 236.448 408 237 408C237.552 408 238 407.552 238 407C238 406.447 237.552 406 237 406Z" fill="white"/><path d="M410 424C409.448 424 409 424.448 409 425C409 425.552 409.448 426 410 426C410.552 426 411 425.552 411 425C411 424.448 410.552 424 410 424Z" fill="white"/><path d="M69 47.9999C68.4477 47.9999 68 48.4477 68 48.9999C68 49.5522 68.4477 49.9999 69 49.9999C69.5523 49.9999 70 49.5522 70 48.9999C70 48.4477 69.5523 47.9999 69 47.9999Z" fill="white"/><path d="M15.9999 248C15.4476 248 14.9999 248.447 14.9999 249C14.9999 249.552 15.4476 250 15.9999 250C16.5522 250 16.9999 249.552 16.9999 249C16.9999 248.447 16.5522 248 15.9999 248Z" fill="white"/><path d="M141 223C140.448 223 140 223.448 140 224C140 224.552 140.448 225 141 225C141.552 225 142 224.552 142 224C142 223.448 141.552 223 141 223Z" fill="white"/><path d="M211 45C210.448 45 210 45.4477 210 46C210 46.5523 210.448 47 211 47C211.552 47 212 46.5523 212 46C212 45.4477 211.552 45 211 45Z" fill="white"/><path d="M1 135C0.447715 135 4.82841e-08 135.448 0 136C-4.82804e-08 136.552 0.447715 137 1 137C1.55228 137 2 136.552 2 136C2 135.448 1.55228 135 1 135Z" fill="white"/><path d="M347 236C346.448 236 346 236.447 346 237C346 237.552 346.448 238 347 238C347.552 238 348 237.552 348 237C348 236.447 347.552 236 347 236Z" fill="white"/><path d="M998 217C997.448 217 997 217.448 997 218C997 218.552 997.448 219 998 219C998.552 219 999 218.552 999 218C999 217.448 998.552 217 998 217Z" fill="white"/><path d="M430 0C429.448 -4.82823e-08 429 0.447715 429 1C429 1.55228 429.448 2 430 2C430.552 2 431 1.55228 431 1C431 0.447715 430.552 4.82823e-08 430 0Z" fill="white"/><path d="M341 45C340.448 45 340 45.4477 340 46C340 46.5523 340.448 47 341 47C341.552 47 342 46.5523 342 46C342 45.4477 341.552 45 341 45Z" fill="white"/><path d="M561.002 379C560.45 379 560.002 379.447 560.002 380C560.002 380.552 560.45 381 561.002 381C561.554 381 562.002 380.552 562.002 380C562.002 379.447 561.554 379 561.002 379Z" fill="white"/><path d="M427 286C426.448 286 426 286.447 426 287C426 287.552 426.448 288 427 288C427.552 288 428 287.552 428 287C428 286.447 427.552 286 427 286Z" fill="white"/><path d="M167 356C166.448 356 166 356.447 166 357C166 357.552 166.448 358 167 358C167.552 358 168 357.552 168 357C168 356.447 167.552 356 167 356Z" fill="white"/><path d="M702 411C701.448 411 701 411.447 701 412C701 412.552 701.448 413 702 413C702.552 413 703 412.552 703 412C703 411.447 702.552 411 702 411Z" fill="white"/><path d="M632 431C631.448 431 631 431.447 631 432C631 432.552 631.448 433 632 433C632.552 433 633 432.552 633 432C633 431.447 632.552 431 632 431Z" fill="white"/><path d="M805 449C804.448 449 804 449.448 804 450C804 450.552 804.448 451 805 451C805.552 451 806 450.552 806 450C806 449.448 805.552 449 805 449Z" fill="white"/><path d="M464 72.9999C463.448 72.9999 463 73.4477 463 73.9999C463 74.5522 463.448 74.9999 464 74.9999C464.552 74.9999 465 74.5522 465 73.9999C465 73.4477 464.552 72.9999 464 72.9999Z" fill="white"/><path d="M411 273C410.448 273 410 273.447 410 274C410 274.552 410.448 275 411 275C411.552 275 412 274.552 412 274C412 273.447 411.552 273 411 273Z" fill="white"/><path d="M536 248C535.448 248 535 248.448 535 249C535 249.552 535.448 250 536 250C536.552 250 537 249.552 537 249C537 248.448 536.552 248 536 248Z" fill="white"/><path d="M606 70C605.448 70 605 70.4477 605 71C605 71.5523 605.448 72 606 72C606.552 72 607 71.5523 607 71C607 70.4477 606.552 70 606 70Z" fill="white"/><path d="M396 160C395.448 160 395 160.448 395 161C395 161.552 395.448 162 396 162C396.552 162 397 161.552 397 161C397 160.448 396.552 160 396 160Z" fill="white"/><path d="M742 261C741.448 261 741 261.447 741 262C741 262.552 741.448 263 742 263C742.552 263 743 262.552 743 262C743 261.447 742.552 261 742 261Z" fill="white"/><path d="M1393 242C1392.45 242 1392 242.448 1392 243C1392 243.552 1392.45 244 1393 244C1393.55 244 1394 243.552 1394 243C1394 242.448 1393.55 242 1393 242Z" fill="white"/><path d="M825 25C824.448 25 824 25.4477 824 26C824 26.5523 824.448 27 825 27C825.552 27 826 26.5523 826 26C826 25.4477 825.552 25 825 25Z" fill="white"/><path d="M736 70C735.448 70 735 70.4477 735 71C735 71.5523 735.448 72 736 72C736.552 72 737 71.5523 737 71C737 70.4477 736.552 70 736 70Z" fill="white"/><path d="M956.002 404C955.45 404 955.002 404.447 955.002 405C955.002 405.552 955.45 406 956.002 406C956.554 406 957.002 405.552 957.002 405C957.002 404.447 956.554 404 956.002 404Z" fill="white"/><path d="M822 311C821.448 311 821 311.447 821 312C821 312.552 821.448 313 822 313C822.552 313 823 312.552 823 312C823 311.447 822.552 311 822 311Z" fill="white"/><path d="M562 381C561.448 381 561 381.447 561 382C561 382.552 561.448 383 562 383C562.552 383 563 382.552 563 382C563 381.447 562.552 381 562 381Z" fill="white"/></svg>