<svg xmlns="http://www.w3.org/2000/svg" xmlns:xlink="http://www.w3.org/1999/xlink" width="504" height="763" viewBox="0 0 504 763"><defs><linearGradient id="a" x1="221.438" y1="346.737" x2="-8.189" y2="270.376" gradientTransform="translate(513 764) rotate(180)" gradientUnits="userSpaceOnUse"><stop offset="0.168" stop-color="#999dce" stop-opacity="0"/><stop offset="0.714" stop-color="#999dce"/></linearGradient><linearGradient id="b" x1="321.285" y1="390.273" x2="522.366" y2="565.415" gradientTransform="translate(513 764) rotate(180)" gradientUnits="userSpaceOnUse"><stop offset="0" stop-color="#fff" stop-opacity="0"/><stop offset="1" stop-color="#fafdff"/></linearGradient></defs><path d="M88.643,763Q50.387,763,25.8,738.474,1.189,713.964,1.2,675.851V250.007Q1.2,145.965,74.718,72.98,148.2-.005,252.6,0,356.981,0,430.487,72.98T504,250.007V675.851q0,38.114-24.6,62.623T416.557,763q-38.257,0-62.842-24.526-24.613-24.51-24.6-62.649V250.435q0-31.615-22.4-53.943-22.4-22.354-54.109-22.338-31.707,0-54.109,22.338t-22.4,53.943v425.39q0,38.136-24.6,62.649Q126.911,762.991,88.643,763Z" fill="#eadded"/><path d="M88.643,763Q50.387,763,25.8,738.474,1.189,713.964,1.2,675.851V250.007Q1.2,145.965,74.718,72.98,148.2-.005,252.6,0,356.981,0,430.487,72.98T504,250.007V675.851q0,38.114-24.6,62.623T416.557,763q-38.257,0-62.842-24.526-24.613-24.51-24.6-62.649V250.435q0-31.615-22.4-53.943-22.4-22.354-54.109-22.338-31.707,0-54.109,22.338t-22.4,53.943v425.39q0,38.136-24.6,62.649Q126.911,762.991,88.643,763Z" fill="url(#a)"/><path d="M88.643,763Q50.387,763,25.8,738.474,1.189,713.964,1.2,675.851V250.007Q1.2,145.965,74.718,72.98,148.2-.005,252.6,0,356.981,0,430.487,72.98T504,250.007V675.851q0,38.114-24.6,62.623T416.557,763q-38.257,0-62.842-24.526-24.613-24.51-24.6-62.649V250.435q0-31.615-22.4-53.943-22.4-22.354-54.109-22.338-31.707,0-54.109,22.338t-22.4,53.943v425.39q0,38.136-24.6,62.649Q126.911,762.991,88.643,763Z" fill="url(#b)"/></svg>