<svg xmlns="http://www.w3.org/2000/svg" xmlns:xlink="http://www.w3.org/1999/xlink" width="341" height="810" viewBox="0 0 341 810"><defs><linearGradient id="a" x1="-121.608" y1="109.034" x2="266.061" y2="916.57" gradientTransform="translate(351 810) rotate(180)" gradientUnits="userSpaceOnUse"><stop offset="0" stop-color="#bbbddf"/><stop offset="1" stop-color="#fff"/></linearGradient></defs><path d="M87.459,220.519Q1.43,307.116,1.4,430.577V721.588q0,45.245,28.793,74.335Q59.007,825.007,103.767,825q44.823,0,73.591-29.089t28.773-74.343V431.078q0-37.5,26.247-64.009t63.323-26.5q37.107,0,63.343,26.5,26.268,26.526,26.226,64.009v290.49q0,45.237,28.8,74.343T487.635,825q44.825,0,73.591-29.07Q590,766.875,590,721.673V-56.672q0-45.207-28.774-74.277Q532.414-160,487.635-160q-44.745,0-73.57,29.051-28.774,29.064-28.8,74.277V148.754A275.515,275.515,0,0,0,295.7,133.9Q173.51,133.9,87.459,220.519Z" fill-rule="evenodd" fill="url(#a)"/></svg>