<svg xmlns="http://www.w3.org/2000/svg" xmlns:xlink="http://www.w3.org/1999/xlink" width="477" height="441" viewBox="0 0 477 441"><defs><linearGradient id="a" x1="211.537" y1="46.148" x2="-6.307" y2="-26.294" gradientTransform="translate(487 442) rotate(180)" gradientUnits="userSpaceOnUse"><stop offset="0.168" stop-color="#999dce" stop-opacity="0"/><stop offset="0.714" stop-color="#999dce"/></linearGradient><linearGradient id="b" x1="306.26" y1="87.45" x2="497.023" y2="253.605" gradientTransform="translate(487 442) rotate(180)" gradientUnits="userSpaceOnUse"><stop offset="0" stop-color="#fff" stop-opacity="0"/><stop offset="1" stop-color="#fafdff"/></linearGradient></defs><path d="M82.956,723.848q-36.293,0-59.617-23.268Q-.01,677.328,0,641.171V237.178q0-98.7,69.746-167.943Q139.457,0,238.5,0q99.024,0,168.76,69.235T477,237.178V641.171q0,36.157-23.334,59.409t-59.622,23.268q-36.294,0-59.617-23.268-23.351-23.252-23.339-59.435V237.584q0-29.993-21.256-51.174Q268.583,165.2,238.5,165.217q-30.079,0-51.332,21.193t-21.256,51.174V641.145q0,36.181-23.333,59.435T82.956,723.848Z" fill="#eadded"/><path d="M82.956,723.848q-36.293,0-59.617-23.268Q-.01,677.328,0,641.171V237.178q0-98.7,69.746-167.943Q139.457,0,238.5,0q99.024,0,168.76,69.235T477,237.178V641.171q0,36.157-23.334,59.409t-59.622,23.268q-36.294,0-59.617-23.268-23.351-23.252-23.339-59.435V237.584q0-29.993-21.256-51.174Q268.583,165.2,238.5,165.217q-30.079,0-51.332,21.193t-21.256,51.174V641.145q0,36.181-23.333,59.435T82.956,723.848Z" fill="url(#a)"/><path d="M82.956,723.848q-36.293,0-59.617-23.268Q-.01,677.328,0,641.171V237.178q0-98.7,69.746-167.943Q139.457,0,238.5,0q99.024,0,168.76,69.235T477,237.178V641.171q0,36.157-23.334,59.409t-59.622,23.268q-36.294,0-59.617-23.268-23.351-23.252-23.339-59.435V237.584q0-29.993-21.256-51.174Q268.583,165.2,238.5,165.217q-30.079,0-51.332,21.193t-21.256,51.174V641.145q0,36.181-23.333,59.435T82.956,723.848Z" fill="url(#b)"/></svg>