<svg xmlns="http://www.w3.org/2000/svg" xmlns:xlink="http://www.w3.org/1999/xlink" width="477" height="676" viewBox="0 0 477 676"><defs><linearGradient id="a" x1="201.859" y1="280.612" x2="-15.729" y2="208.254" gradientTransform="matrix(1, 0, 0, -1, 0, 676)" gradientUnits="userSpaceOnUse"><stop offset="0.168" stop-color="#999dce" stop-opacity="0"/><stop offset="0.714" stop-color="#999dce"/></linearGradient><linearGradient id="b" x1="296.472" y1="321.865" x2="487.011" y2="487.825" gradientTransform="matrix(1, 0, 0, -1, 0, 676)" gradientUnits="userSpaceOnUse"><stop offset="0" stop-color="#fff" stop-opacity="0"/><stop offset="1" stop-color="#fafdff"/></linearGradient></defs><path d="M334.588,699.76q-23.322-23.224-23.306-59.365V237.306q0-29.958-21.23-51.115-21.233-21.183-51.273-21.167-30.036,0-51.272,21.167t-21.23,51.115V640.4q0,36.138-23.312,59.365Q119.682,722.992,83.418,723T23.865,699.76Q.55,676.536.559,640.42V236.9q0-98.588,69.658-167.747Q139.854,0,238.779,0q98.909,0,168.557,69.154Q477.012,138.321,477,236.9V640.42q0,36.116-23.312,59.34Q430.405,722.992,394.141,723T334.588,699.76Z" fill="#eadded"/><path d="M334.588,699.76q-23.322-23.224-23.306-59.365V237.306q0-29.958-21.23-51.115-21.233-21.183-51.273-21.167-30.036,0-51.272,21.167t-21.23,51.115V640.4q0,36.138-23.312,59.365Q119.682,722.992,83.418,723T23.865,699.76Q.55,676.536.559,640.42V236.9q0-98.588,69.658-167.747Q139.854,0,238.779,0q98.909,0,168.557,69.154Q477.012,138.321,477,236.9V640.42q0,36.116-23.312,59.34Q430.405,722.992,394.141,723T334.588,699.76Z" fill="url(#a)"/><path d="M334.588,699.76q-23.322-23.224-23.306-59.365V237.306q0-29.958-21.23-51.115-21.233-21.183-51.273-21.167-30.036,0-51.272,21.167t-21.23,51.115V640.4q0,36.138-23.312,59.365Q119.682,722.992,83.418,723T23.865,699.76Q.55,676.536.559,640.42V236.9q0-98.588,69.658-167.747Q139.854,0,238.779,0q98.909,0,168.557,69.154Q477.012,138.321,477,236.9V640.42q0,36.116-23.312,59.34Q430.405,722.992,394.141,723T334.588,699.76Z" fill="url(#b)"/></svg>