<svg xmlns="http://www.w3.org/2000/svg" xmlns:xlink="http://www.w3.org/1999/xlink" width="292" height="676" viewBox="0 0 292 676"><defs><linearGradient id="a" x1="226.449" y1="248.893" x2="-8.595" y2="170.731" gradientTransform="translate(301 676) rotate(180)" gradientUnits="userSpaceOnUse"><stop offset="0.168" stop-color="#999dce" stop-opacity="0"/><stop offset="0.714" stop-color="#999dce"/></linearGradient><linearGradient id="b" x1="328.652" y1="293.456" x2="534.477" y2="472.73" gradientTransform="translate(301 676) rotate(180)" gradientUnits="userSpaceOnUse"><stop offset="0" stop-color="#fff" stop-opacity="0"/><stop offset="1" stop-color="#fafdff"/></linearGradient></defs><path d="M-133.156,781q-39.159,0-64.324-25.105-25.193-25.088-25.182-64.1V255.905q0-106.5,75.252-181.2Q-72.194-.005,34.669,0,141.513,0,216.753,74.7T292,255.905V691.8q0,39.012-25.176,64.1T202.494,781q-39.16,0-64.325-25.105-25.193-25.088-25.181-64.127V256.343q0-32.361-22.934-55.215-22.927-22.882-55.385-22.866-32.455,0-55.386,22.866T-43.65,256.343V691.768q0,39.037-25.176,64.127Q-93.985,780.992-133.156,781Z" fill="#eadded"/><path d="M-133.156,781q-39.159,0-64.324-25.105-25.193-25.088-25.182-64.1V255.905q0-106.5,75.252-181.2Q-72.194-.005,34.669,0,141.513,0,216.753,74.7T292,255.905V691.8q0,39.012-25.176,64.1T202.494,781q-39.16,0-64.325-25.105-25.193-25.088-25.181-64.127V256.343q0-32.361-22.934-55.215-22.927-22.882-55.385-22.866-32.455,0-55.386,22.866T-43.65,256.343V691.768q0,39.037-25.176,64.127Q-93.985,780.992-133.156,781Z" fill="url(#a)"/><path d="M-133.156,781q-39.159,0-64.324-25.105-25.193-25.088-25.182-64.1V255.905q0-106.5,75.252-181.2Q-72.194-.005,34.669,0,141.513,0,216.753,74.7T292,255.905V691.8q0,39.012-25.176,64.1T202.494,781q-39.16,0-64.325-25.105-25.193-25.088-25.181-64.127V256.343q0-32.361-22.934-55.215-22.927-22.882-55.385-22.866-32.455,0-55.386,22.866T-43.65,256.343V691.768q0,39.037-25.176,64.127Q-93.985,780.992-133.156,781Z" fill="url(#b)"/></svg>