<svg xmlns="http://www.w3.org/2000/svg" xmlns:xlink="http://www.w3.org/1999/xlink" width="247" height="358" viewBox="0 0 247 358"><defs><linearGradient id="a" x1="114.36" y1="153.02" x2="1.556" y2="115.508" gradientTransform="translate(257 358) rotate(180)" gradientUnits="userSpaceOnUse"><stop offset="0.168" stop-color="#999dce" stop-opacity="0"/><stop offset="0.714" stop-color="#999dce"/></linearGradient><linearGradient id="b" x1="163.409" y1="174.407" x2="262.19" y2="260.445" gradientTransform="translate(257 358) rotate(180)" gradientUnits="userSpaceOnUse"><stop offset="0" stop-color="#fff" stop-opacity="0"/><stop offset="1" stop-color="#fafdff"/></linearGradient></defs><path d="M42.956,374.823q-18.792,0-30.871-12.049T0,332.011v-209.2Q0,71.705,36.116,35.851,72.214,0,123.5,0t87.387,35.851Q247,71.709,247,122.816v209.2q0,18.723-12.083,30.763t-30.873,12.049q-18.795,0-30.871-12.049Q161.082,350.734,161.087,332V123.026A37.522,37.522,0,0,0,123.5,85.553a37.522,37.522,0,0,0-37.587,37.473V332q0,18.735-12.083,30.776T42.956,374.823Z" fill="#eadded"/><path d="M42.956,374.823q-18.792,0-30.871-12.049T0,332.011v-209.2Q0,71.705,36.116,35.851,72.214,0,123.5,0t87.387,35.851Q247,71.709,247,122.816v209.2q0,18.723-12.083,30.763t-30.873,12.049q-18.795,0-30.871-12.049Q161.082,350.734,161.087,332V123.026A37.522,37.522,0,0,0,123.5,85.553a37.522,37.522,0,0,0-37.587,37.473V332q0,18.735-12.083,30.776T42.956,374.823Z" fill="url(#a)"/><path d="M42.956,374.823q-18.792,0-30.871-12.049T0,332.011v-209.2Q0,71.705,36.116,35.851,72.214,0,123.5,0t87.387,35.851Q247,71.709,247,122.816v209.2q0,18.723-12.083,30.763t-30.873,12.049q-18.795,0-30.871-12.049Q161.082,350.734,161.087,332V123.026A37.522,37.522,0,0,0,123.5,85.553a37.522,37.522,0,0,0-37.587,37.473V332q0,18.735-12.083,30.776T42.956,374.823Z" fill="url(#b)"/></svg>