<svg xmlns="http://www.w3.org/2000/svg" xmlns:xlink="http://www.w3.org/1999/xlink" width="530.634" height="888" viewBox="0 0 530.634 888"><defs><linearGradient id="a" x1="114.832" y1="111.819" x2="464.324" y2="839.831" gradientTransform="translate(539.634 888) rotate(180)" gradientUnits="userSpaceOnUse"><stop offset="0" stop-color="#babde4"/><stop offset="1" stop-color="#fff"/></linearGradient></defs><path d="M77.582,343.046Q.023,421.115,0,532.419V794.772q0,40.789,25.958,67.015Q51.932,888.006,92.284,888q40.408,0,66.344-26.225t25.939-67.021V532.871q0-33.8,23.662-57.707,23.649-23.888,57.088-23.89t57.105,23.89q23.682,23.915,23.643,57.707V794.754q0,40.782,25.959,67.021T438.35,888q40.41,0,66.344-26.208,25.939-26.192,25.94-66.943V93.152q0-40.753-25.94-66.962Q478.719,0,438.35,0q-40.34,0-66.326,26.19-25.941,26.2-25.959,66.962v185.2a248.358,248.358,0,0,0-80.748-13.392Q155.158,264.957,77.582,343.046Z" fill-rule="evenodd" fill="url(#a)"/></svg>