<svg width="236" height="92" viewBox="0 0 236 92" fill="none" xmlns="http://www.w3.org/2000/svg"><g clip-path="url(#clip0_5048_88039)"><path d="M20.9693 49.3932C21.8109 46.7347 25.5981 46.7347 26.4397 49.3932L29.9464 60.0274C30.2971 61.2168 31.4192 61.9864 32.6816 61.9864H43.903C46.7084 61.9864 47.8305 65.5544 45.5862 67.1636L36.4689 73.74C35.487 74.4396 35.0662 75.7689 35.4169 76.9582L38.9235 87.5924C39.7651 90.251 36.7494 92.4198 34.5051 90.8107L25.3877 84.2343C24.4059 83.5347 23.0032 83.5347 22.0213 84.2343L12.9039 90.8107C10.6597 92.4198 7.6439 90.251 8.48551 87.5924L11.9922 76.9582C12.3429 75.7689 11.9221 74.5096 10.9402 73.74L1.8228 67.1636C-0.421478 65.5544 0.700662 61.9864 3.50601 61.9864H14.7274C15.9898 61.9864 17.0418 61.2168 17.4626 60.0274L20.9693 49.3932Z" fill="#CCB1DA"/><path d="M130.028 1.60909C130.028 0.769542 131.15 0.34977 131.711 1.04939L136.2 6.57639C136.41 6.85623 136.831 6.99616 137.182 6.85623L144.055 4.8973C144.897 4.68741 145.598 5.59692 145.107 6.29654L141.25 12.2433C141.039 12.5931 141.039 12.9429 141.25 13.2927L145.247 19.1695C145.738 19.8692 145.037 20.8486 144.195 20.6387L137.322 18.8197C136.972 18.7498 136.551 18.8197 136.34 19.1695L131.992 24.7665C131.431 25.4661 130.379 25.1163 130.309 24.2068L129.958 17.1406C129.958 16.7908 129.678 16.441 129.327 16.3011L122.594 13.9224C121.752 13.6425 121.752 12.4532 122.594 12.1733L129.257 9.65471C129.607 9.51479 129.818 9.16498 129.888 8.81517L130.028 1.60909Z" fill="#CCB1DA"/><path d="M229.548 61.0069C230.249 60.4472 231.231 61.0069 231.09 61.9164L230.249 66.8137C230.179 67.1635 230.319 67.5833 230.67 67.7932L234.878 70.4517C235.649 70.9415 235.369 72.0609 234.527 72.2008L229.548 72.9004C229.197 72.9704 228.846 73.2502 228.776 73.6L227.514 78.4274C227.303 79.267 226.111 79.4069 225.76 78.6373L223.586 74.1597C223.446 73.8099 223.095 73.6 222.674 73.6L217.695 73.8799C216.853 73.9498 216.362 72.9004 216.994 72.2708L220.57 68.7727C220.851 68.4928 220.921 68.073 220.781 67.7232L218.957 63.1057C218.607 62.2662 219.518 61.4966 220.29 61.9164L224.708 64.2251C225.059 64.435 225.48 64.3651 225.76 64.0852L229.548 61.0069Z" fill="#CCB1DA"/></g><defs><clipPath id="clip0_5048_88039"><rect width="236" height="92" fill="white"/></clipPath></defs></svg>